<svg id="visual" viewBox="0 0 900 600" width="900" height="600" xmlns="http://www.w3.org/2000/svg" xmlns:xlink="http://www.w3.org/1999/xlink" version="1.1"><rect x="0" y="0" width="900" height="600" fill="#140021"></rect><path d="M0 279L129 279L129 360L257 360L257 282L386 282L386 357L514 357L514 259L643 259L643 310L771 310L771 254L900 254L900 372L900 601L900 601L771 601L771 601L643 601L643 601L514 601L514 601L386 601L386 601L257 601L257 601L129 601L129 601L0 601Z" fill="#9900ff"></path><path d="M0 404L129 404L129 401L257 401L257 436L386 436L386 455L514 455L514 372L643 372L643 457L771 457L771 367L900 367L900 403L900 601L900 601L771 601L771 601L643 601L643 601L514 601L514 601L386 601L386 601L257 601L257 601L129 601L129 601L0 601Z" fill="#7700c6"></path><path d="M0 486L129 486L129 532L257 532L257 450L386 450L386 500L514 500L514 539L643 539L643 475L771 475L771 455L900 455L900 528L900 601L900 601L771 601L771 601L643 601L643 601L514 601L514 601L386 601L386 601L257 601L257 601L129 601L129 601L0 601Z" fill="#560090"></path></svg>