<svg id="visual" viewBox="0 0 900 600" width="900" height="600" xmlns="http://www.w3.org/2000/svg" xmlns:xlink="http://www.w3.org/1999/xlink" version="1.1"><rect x="0" y="0" width="900" height="600" fill="#140021"></rect><path d="M0 131L129 131L129 178L257 178L257 144L386 144L386 192L514 192L514 146L643 146L643 203L771 203L771 169L900 169L900 209L900 0L900 0L771 0L771 0L643 0L643 0L514 0L514 0L386 0L386 0L257 0L257 0L129 0L129 0L0 0Z" fill="#9900ff"></path><path d="M0 154L129 154L129 90L257 90L257 74L386 74L386 93L514 93L514 120L643 120L643 89L771 89L771 74L900 74L900 116L900 0L900 0L771 0L771 0L643 0L643 0L514 0L514 0L386 0L386 0L257 0L257 0L129 0L129 0L0 0Z" fill="#7700c6"></path><path d="M0 72L129 72L129 92L257 92L257 48L386 48L386 76L514 76L514 59L643 59L643 50L771 50L771 66L900 66L900 61L900 0L900 0L771 0L771 0L643 0L643 0L514 0L514 0L386 0L386 0L257 0L257 0L129 0L129 0L0 0Z" fill="#560090"></path></svg>